<svg width="250" height="272" viewBox="0 0 250 272" fill="none" xmlns="http://www.w3.org/2000/svg">
<g opacity="0.1">
<path d="M254.945 0C216.305 0 184.89 32.8405 184.89 73.2114V154.421C177.665 154.796 170.445 155.171 162.476 155.171C154.891 155.171 147.312 155.553 140.063 155.928V73.2114C139.39 32.8405 107.61 0.375285 68.9696 1.13201C31.0549 1.50729 0.719601 33.5972 0 73.2114V266.883C0.719601 307.279 32.5 339.744 71.1402 338.987C89.3579 338.648 106.736 330.937 119.605 317.483C132.474 304.029 139.827 285.885 140.11 266.883V185.723C147.335 185.348 154.555 184.973 162.524 184.973C170.109 184.973 177.688 184.591 184.937 184.216V266.883C185.657 307.279 217.437 339.744 256.078 338.987C274.287 338.635 291.653 330.919 304.512 317.466C317.371 304.014 324.717 285.877 325 266.883V73.2114C325 32.8405 293.585 0 254.945 0ZM70.0549 29.8198C92.8049 29.8198 111.22 49.0762 111.585 72.8853V158.549C91.0482 161.616 71.0067 167.583 52.0118 176.286C43.7965 180.108 36.0401 184.923 28.902 190.633V73.2114C28.902 49.0762 47.3049 29.8198 70.0549 29.8198ZM111.585 266.508C111.596 278.008 107.227 289.043 99.4388 297.183C91.6505 305.324 81.0809 309.905 70.0549 309.918C47.3049 309.918 28.902 290.668 28.902 266.508V247.258C28.902 230.271 41.8784 213.66 63.5667 203.847C78.9925 197.064 95.1053 192.125 111.597 189.125L111.585 266.508ZM254.945 309.918C232.195 309.918 213.78 290.668 213.415 266.883V180.82C233.951 177.747 253.993 171.778 272.988 163.077C281.205 159.257 288.961 154.442 296.098 148.73V266.508C296.098 290.668 277.695 309.918 254.945 309.918ZM261.433 135.896C246.007 142.677 229.894 147.616 213.403 150.619V73.2114C213.392 61.7102 217.761 50.6754 225.549 42.5337C233.337 34.3919 243.907 29.8099 254.933 29.7952C277.695 29.8198 296.098 49.0762 296.098 73.2114V92.4616C296.098 109.473 283.122 125.702 261.445 135.896H261.433Z" fill="url(#paint0_linear_5_1217)"/>
<path d="M254.945 0C216.305 0 184.89 32.8405 184.89 73.2114V154.421C177.665 154.796 170.445 155.171 162.476 155.171C154.891 155.171 147.312 155.553 140.063 155.928V73.2114C139.39 32.8405 107.61 0.375285 68.9696 1.13201C31.0549 1.50729 0.719601 33.5972 0 73.2114V266.883C0.719601 307.279 32.5 339.744 71.1402 338.987C89.3579 338.648 106.736 330.937 119.605 317.483C132.474 304.029 139.827 285.885 140.11 266.883V185.723C147.335 185.348 154.555 184.973 162.524 184.973C170.109 184.973 177.688 184.591 184.937 184.216V266.883C185.657 307.279 217.437 339.744 256.078 338.987C274.287 338.635 291.653 330.919 304.512 317.466C317.371 304.014 324.717 285.877 325 266.883V73.2114C325 32.8405 293.585 0 254.945 0ZM70.0549 29.8198C92.8049 29.8198 111.22 49.0762 111.585 72.8853V158.549C91.0482 161.616 71.0067 167.583 52.0118 176.286C43.7965 180.108 36.0401 184.923 28.902 190.633V73.2114C28.902 49.0762 47.3049 29.8198 70.0549 29.8198ZM111.585 266.508C111.596 278.008 107.227 289.043 99.4388 297.183C91.6505 305.324 81.0809 309.905 70.0549 309.918C47.3049 309.918 28.902 290.668 28.902 266.508V247.258C28.902 230.271 41.8784 213.66 63.5667 203.847C78.9925 197.064 95.1053 192.125 111.597 189.125L111.585 266.508ZM254.945 309.918C232.195 309.918 213.78 290.668 213.415 266.883V180.82C233.951 177.747 253.993 171.778 272.988 163.077C281.205 159.257 288.961 154.442 296.098 148.73V266.508C296.098 290.668 277.695 309.918 254.945 309.918ZM261.433 135.896C246.007 142.677 229.894 147.616 213.403 150.619V73.2114C213.392 61.7102 217.761 50.6754 225.549 42.5337C233.337 34.3919 243.907 29.8099 254.933 29.7952C277.695 29.8198 296.098 49.0762 296.098 73.2114V92.4616C296.098 109.473 283.122 125.702 261.445 135.896H261.433Z" fill="white"/>
</g>
<defs>
<linearGradient id="paint0_linear_5_1217" x1="20.6384" y1="317.633" x2="316.774" y2="34.3406" gradientUnits="userSpaceOnUse">
<stop stop-color="#00ADE8"/>
<stop offset="1" stop-color="#01E8A2"/>
</linearGradient>
</defs>
</svg>
