<svg width="111" height="28" viewBox="0 0 111 28" fill="none" xmlns="http://www.w3.org/2000/svg">
<path d="M1.484 9.51C1.484 9.818 1.736 10.07 2.03 10.07C2.338 10.07 2.59 9.818 2.59 9.51V0.69C2.59 0.381999 2.338 0.129999 2.03 0.129999C1.736 0.129999 1.484 0.381999 1.484 0.69V9.51ZM15.9602 9.524C15.9602 9.818 16.1982 10.07 16.4922 10.07C16.8002 10.07 17.0382 9.818 17.0382 9.524V1.936L23.1142 9.706C23.2822 9.902 23.4502 10.042 23.6882 10.042H23.7442C24.0382 10.042 24.2482 9.818 24.2482 9.524V0.676C24.2482 0.381999 24.0102 0.129999 23.7162 0.129999C23.4082 0.129999 23.1702 0.381999 23.1702 0.676V8.068L17.2202 0.48C17.0662 0.284 16.9122 0.158 16.6602 0.158H16.5062C16.2122 0.158 15.9602 0.409999 15.9602 0.704V9.524ZM42.0008 10.168C43.6108 10.168 44.6748 9.608 45.6408 8.726C45.7388 8.642 45.8228 8.502 45.8228 8.334C45.8228 8.054 45.5708 7.802 45.2908 7.802C45.1508 7.802 45.0248 7.872 44.9408 7.956C44.1008 8.726 43.2468 9.146 42.0288 9.146C39.8728 9.146 38.2348 7.368 38.2348 5.1V5.072C38.2348 2.818 39.8588 1.054 42.0288 1.054C43.2328 1.054 44.0868 1.502 44.8428 2.174C44.9268 2.23 45.0528 2.3 45.2068 2.3C45.5008 2.3 45.7668 2.048 45.7668 1.754C45.7668 1.558 45.6548 1.404 45.5428 1.306C44.6328 0.55 43.6248 0.0319998 42.0428 0.0319998C39.1588 0.0319998 37.0868 2.328 37.0868 5.1V5.128C37.0868 7.942 39.1728 10.168 42.0008 10.168ZM62.6333 10.168C65.6153 10.168 67.6453 7.802 67.6453 5.1V5.072C67.6453 2.37 65.6433 0.0319998 62.6613 0.0319998C59.6793 0.0319998 57.6493 2.398 57.6493 5.1V5.128C57.6493 7.83 59.6513 10.168 62.6333 10.168ZM62.6613 9.146C60.4213 9.146 58.7973 7.326 58.7973 5.1V5.072C58.7973 2.846 60.3933 1.054 62.6333 1.054C64.8733 1.054 66.4973 2.874 66.4973 5.1V5.128C66.4973 7.354 64.9013 9.146 62.6613 9.146ZM80.4778 9.524C80.4778 9.832 80.7158 10.07 81.0098 10.07C81.3178 10.07 81.5558 9.832 81.5558 9.524V2.216L84.6778 6.808C84.8038 6.99 84.9578 7.088 85.1538 7.088C85.3498 7.088 85.4898 6.99 85.6158 6.808L88.7518 2.202V9.51C88.7518 9.804 89.0038 10.07 89.3118 10.07C89.6058 10.07 89.8578 9.818 89.8578 9.51V0.704C89.8578 0.409999 89.6058 0.158 89.3118 0.158H89.1858C88.9618 0.158 88.7798 0.269999 88.6678 0.451999L85.1678 5.716L81.6678 0.451999C81.5558 0.284 81.3878 0.158 81.1498 0.158H81.0238C80.7298 0.158 80.4778 0.409999 80.4778 0.704V9.524ZM103.678 10H109.838C110.118 10 110.342 9.776 110.342 9.496C110.342 9.216 110.118 8.992 109.838 8.992H104.238V5.562H109.138C109.418 5.562 109.642 5.338 109.642 5.058C109.642 4.792 109.418 4.554 109.138 4.554H104.238V1.208H109.768C110.048 1.208 110.272 0.983999 110.272 0.704C110.272 0.424 110.048 0.199999 109.768 0.199999H103.678C103.384 0.199999 103.132 0.451999 103.132 0.76V9.44C103.132 9.748 103.384 10 103.678 10Z" fill="#111111"/>
<path d="M0.946 25.626C0.946 25.857 1.133 26.055 1.375 26.055C1.617 26.055 1.793 25.857 1.793 25.626V24.911C2.233 25.549 2.915 26.121 3.971 26.121C5.346 26.121 6.688 25.021 6.688 23.162V23.14C6.688 21.27 5.335 20.192 3.971 20.192C2.926 20.192 2.255 20.775 1.793 21.457V18.344C1.793 18.102 1.606 17.915 1.364 17.915C1.133 17.915 0.946 18.102 0.946 18.344V25.626ZM3.817 25.362C2.761 25.362 1.76 24.482 1.76 23.162V23.14C1.76 21.842 2.761 20.951 3.817 20.951C4.895 20.951 5.819 21.809 5.819 23.151V23.173C5.819 24.548 4.917 25.362 3.817 25.362ZM8.83936 27.793C9.69736 27.793 10.2474 27.364 10.7424 26.187L12.9644 20.885C12.9864 20.819 13.0084 20.742 13.0084 20.676C13.0084 20.445 12.8214 20.258 12.5904 20.258C12.3704 20.258 12.2494 20.401 12.1834 20.577L10.4234 25.054L8.44336 20.588C8.36636 20.401 8.24536 20.258 8.01436 20.258C7.77236 20.258 7.58536 20.445 7.58536 20.676C7.58536 20.753 7.60736 20.83 7.64036 20.907L10.0164 25.945L9.97236 26.033C9.66436 26.726 9.35636 27.045 8.82836 27.045C8.54236 27.045 8.37736 27.001 8.21236 26.946C8.14636 26.924 8.08036 26.902 8.00336 26.902C7.81636 26.902 7.64036 27.056 7.64036 27.265C7.64036 27.463 7.77236 27.573 7.90436 27.628C8.19036 27.727 8.46536 27.793 8.83936 27.793ZM17.7463 25.219C17.7463 25.692 18.1203 26.066 18.5933 26.066C19.0663 26.066 19.4403 25.692 19.4403 25.219V22.909H22.5643V25.219C22.5643 25.692 22.9383 26.066 23.4113 26.066C23.8843 26.066 24.2583 25.692 24.2583 25.219V19.081C24.2583 18.608 23.8843 18.234 23.4113 18.234C22.9383 18.234 22.5643 18.608 22.5643 19.081V21.347H19.4403V19.081C19.4403 18.608 19.0663 18.234 18.5933 18.234C18.1203 18.234 17.7463 18.608 17.7463 19.081V25.219ZM27.5997 26.11C28.4137 26.11 28.9747 25.813 29.3817 25.362V25.373C29.3817 25.725 29.7007 26.066 30.1847 26.066C30.6357 26.066 30.9987 25.714 30.9987 25.263V22.579C30.9987 21.787 30.8007 21.138 30.3607 20.698C29.9427 20.28 29.2827 20.038 28.3697 20.038C27.5887 20.038 27.0167 20.148 26.4887 20.346C26.2247 20.445 26.0377 20.698 26.0377 20.995C26.0377 21.38 26.3457 21.677 26.7307 21.677C26.8077 21.677 26.8737 21.666 26.9727 21.633C27.2917 21.534 27.6657 21.468 28.1277 21.468C28.9637 21.468 29.3927 21.853 29.3927 22.546V22.645C28.9747 22.502 28.5457 22.403 27.9517 22.403C26.5547 22.403 25.5757 22.997 25.5757 24.284V24.306C25.5757 25.472 26.4887 26.11 27.5997 26.11ZM28.1057 24.955C27.5667 24.955 27.1927 24.691 27.1927 24.24V24.218C27.1927 23.69 27.6327 23.404 28.3477 23.404C28.7547 23.404 29.1287 23.492 29.4147 23.624V23.921C29.4147 24.526 28.8867 24.955 28.1057 24.955ZM32.4375 25.23C32.4375 25.692 32.8115 26.066 33.2735 26.066C33.7355 26.066 34.1095 25.692 34.1095 25.23V23.668C34.1095 22.48 34.5825 21.831 35.4295 21.633C35.7705 21.556 36.0565 21.292 36.0565 20.852C36.0565 20.379 35.7595 20.038 35.2425 20.038C34.7475 20.038 34.3515 20.566 34.1095 21.138V20.874C34.1095 20.412 33.7355 20.038 33.2735 20.038C32.8115 20.038 32.4375 20.412 32.4375 20.874V25.23ZM37.0351 25.23C37.0351 25.692 37.4091 26.066 37.8711 26.066C38.3331 26.066 38.7071 25.692 38.7071 25.23V22.711C38.7071 21.919 39.0921 21.512 39.7191 21.512C40.3461 21.512 40.6981 21.919 40.6981 22.711V25.23C40.6981 25.692 41.0721 26.066 41.5341 26.066C41.9961 26.066 42.3701 25.692 42.3701 25.23V22.711C42.3701 21.919 42.7551 21.512 43.3821 21.512C44.0091 21.512 44.3611 21.919 44.3611 22.711V25.23C44.3611 25.692 44.7351 26.066 45.1971 26.066C45.6591 26.066 46.0331 25.692 46.0331 25.23V22.161C46.0331 20.742 45.2851 19.994 44.0421 19.994C43.2391 19.994 42.6231 20.324 42.1061 20.929C41.7981 20.335 41.2151 19.994 40.4451 19.994C39.5981 19.994 39.0921 20.445 38.7071 20.94V20.874C38.7071 20.412 38.3331 20.038 37.8711 20.038C37.4091 20.038 37.0351 20.412 37.0351 20.874V25.23ZM50.3803 26.132C52.2173 26.132 53.5813 24.757 53.5813 23.063V23.041C53.5813 21.347 52.2283 19.994 50.4023 19.994C48.5653 19.994 47.2013 21.369 47.2013 23.063V23.085C47.2013 24.779 48.5543 26.132 50.3803 26.132ZM50.4023 24.691C49.4783 24.691 48.8513 23.932 48.8513 23.063V23.041C48.8513 22.172 49.4233 21.435 50.3803 21.435C51.3043 21.435 51.9313 22.194 51.9313 23.063V23.085C51.9313 23.954 51.3593 24.691 50.4023 24.691ZM54.7919 25.23C54.7919 25.692 55.1659 26.066 55.6279 26.066C56.0899 26.066 56.4639 25.692 56.4639 25.23V22.711C56.4639 21.919 56.8709 21.512 57.5089 21.512C58.1469 21.512 58.5209 21.919 58.5209 22.711V25.23C58.5209 25.692 58.8949 26.066 59.3569 26.066C59.8189 26.066 60.1929 25.692 60.1929 25.23V22.183C60.1929 20.83 59.4559 19.994 58.1909 19.994C57.3439 19.994 56.8489 20.445 56.4639 20.94V20.874C56.4639 20.412 56.0899 20.038 55.6279 20.038C55.1659 20.038 54.7919 20.412 54.7919 20.874V25.23ZM62.8128 27.793C63.8138 27.793 64.3088 27.342 64.8038 26.143L66.8608 21.204C66.8938 21.127 66.9378 20.94 66.9378 20.808C66.9378 20.368 66.5748 20.038 66.1458 20.038C65.7168 20.038 65.4748 20.324 65.3428 20.676L64.1108 24.097L62.8348 20.665C62.6918 20.269 62.4498 20.038 62.0318 20.038C61.5697 20.038 61.2067 20.368 61.2067 20.841C61.2067 20.951 61.2508 21.116 61.2948 21.226L63.3078 25.89L63.2528 26.022C63.0988 26.319 62.9558 26.374 62.6588 26.374C62.5378 26.374 62.4498 26.352 62.3068 26.308C62.2408 26.286 62.1638 26.264 62.0318 26.264C61.6908 26.264 61.3718 26.539 61.3718 26.946C61.3718 27.353 61.6578 27.551 61.8998 27.639C62.1748 27.738 62.4388 27.793 62.8128 27.793Z" fill="#555555"/>
</svg>
